ply
format ascii 1.0
comment Created by Open Asset Import Library - http://assimp.sf.net (v3.2.0)
element vertex 480
property float x
property float y
property float z
property float nx
property float ny
property float nz
element face 160
property list uchar int vertex_index
end_header
14.5218 73.6214 37.5384 -0.678623 0.544402 -0.493049
20.5941 82.9777 39.5114 -0.678623 0.544402 -0.493049
26.2364 73.6214 21.4146 -0.678623 0.544402 -0.493049
26.2364 73.6214 21.4146 -0.678623 0.544402 -0.493049
20.5941 82.9777 39.5114 -0.678623 0.544402 -0.493049
29.9893 82.9777 26.58 -0.678623 0.544402 -0.493049
14.5218 73.6214 57.4686 -0.838824 0.544402 -2.19034e-16
20.5941 82.9777 55.4956 -0.838824 0.544402 -2.19034e-16
14.5218 73.6214 37.5384 -0.838824 0.544402 -2.19034e-16
14.5218 73.6214 37.5384 -0.838824 0.544402 -2.19034e-16
20.5941 82.9777 55.4956 -0.838824 0.544402 -2.19034e-16
20.5941 82.9777 39.5114 -0.838824 0.544402 -2.19034e-16
26.2364 73.6214 21.4146 -0.259211 0.544402 -0.797769
29.9893 82.9777 26.58 -0.259211 0.544402 -0.797769
45.1912 73.6214 15.2558 -0.259211 0.544402 -0.797769
45.1912 73.6214 15.2558 -0.259211 0.544402 -0.797769
29.9893 82.9777 26.58 -0.259211 0.544402 -0.797769
45.1912 82.9777 21.6406 -0.259211 0.544402 -0.797769
45.1912 73.6214 15.2558 0.259211 0.544402 -0.797769
45.1912 82.9777 21.6406 0.259211 0.544402 -0.797769
64.1459 73.6214 21.4146 0.259211 0.544402 -0.797769
64.1459 73.6214 21.4146 0.259211 0.544402 -0.797769
45.1912 82.9777 21.6406 0.259211 0.544402 -0.797769
60.393 82.9777 26.58 0.259211 0.544402 -0.797769
64.1459 73.6214 21.4146 0.678623 0.544402 -0.493049
60.393 82.9777 26.58 0.678623 0.544402 -0.493049
75.8605 73.6214 37.5384 0.678623 0.544402 -0.493049
75.8605 73.6214 37.5384 0.678623 0.544402 -0.493049
60.393 82.9777 26.58 0.678623 0.544402 -0.493049
69.7882 82.9777 39.5114 0.678623 0.544402 -0.493049
75.8605 73.6214 37.5384 0.838824 0.544402 0
69.7882 82.9777 39.5114 0.838824 0.544402 0
75.8605 73.6214 57.4686 0.838824 0.544402 0
75.8605 73.6214 57.4686 0.838824 0.544402 0
69.7882 82.9777 39.5114 0.838824 0.544402 0
69.7882 82.9777 55.4956 0.838824 0.544402 0
75.8605 73.6214 57.4686 0.678623 0.544402 0.493049
69.7882 82.9777 55.4956 0.678623 0.544402 0.493049
64.1459 73.6214 73.5924 0.678623 0.544402 0.493049
64.1459 73.6214 73.5924 0.678623 0.544402 0.493049
69.7882 82.9777 55.4956 0.678623 0.544402 0.493049
60.393 82.9777 68.427 0.678623 0.544402 0.493049
64.1459 73.6214 73.5924 0.259211 0.544402 0.797769
60.393 82.9777 68.427 0.259211 0.544402 0.797769
45.1912 73.6214 79.7512 0.259211 0.544402 0.797769
45.1912 73.6214 79.7512 0.259211 0.544402 0.797769
60.393 82.9777 68.427 0.259211 0.544402 0.797769
45.1912 82.9777 73.3664 0.259211 0.544402 0.797769
45.1912 73.6214 79.7512 -0.259211 0.544402 0.797769
45.1912 82.9777 73.3664 -0.259211 0.544402 0.797769
26.2364 73.6214 73.5924 -0.259211 0.544402 0.797769
26.2364 73.6214 73.5924 -0.259211 0.544402 0.797769
45.1912 82.9777 73.3664 -0.259211 0.544402 0.797769
29.9893 82.9777 68.427 -0.259211 0.544402 0.797769
26.2364 73.6214 73.5924 -0.678623 0.544402 0.493049
29.9893 82.9777 68.427 -0.678623 0.544402 0.493049
14.5218 73.6214 57.4686 -0.678623 0.544402 0.493049
14.5218 73.6214 57.4686 -0.678623 0.544402 0.493049
29.9893 82.9777 68.427 -0.678623 0.544402 0.493049
20.5941 82.9777 55.4956 -0.678623 0.544402 0.493049
8.8681 62.8692 59.3056 -0.8851 0.465402 5.20384e-16
14.5218 73.6214 57.4686 -0.8851 0.465402 5.20384e-16
8.8681 62.8692 35.7014 -0.8851 0.465402 5.20384e-16
8.8681 62.8692 35.7014 -0.8851 0.465402 5.20384e-16
14.5218 73.6214 57.4686 -0.8851 0.465402 5.20384e-16
14.5218 73.6214 37.5384 -0.8851 0.465402 5.20384e-16
22.7423 62.8692 78.4017 -0.716061 0.465402 0.520248
26.2364 73.6214 73.5924 -0.716061 0.465402 0.520248
8.8681 62.8692 59.3056 -0.716061 0.465402 0.520248
8.8681 62.8692 59.3056 -0.716061 0.465402 0.520248
26.2364 73.6214 73.5924 -0.716061 0.465402 0.520248
14.5218 73.6214 57.4686 -0.716061 0.465402 0.520248
8.8681 62.8692 35.7014 -0.716061 0.465402 -0.520248
14.5218 73.6214 37.5384 -0.716061 0.465402 -0.520248
22.7423 62.8692 16.6053 -0.716061 0.465402 -0.520248
22.7423 62.8692 16.6053 -0.716061 0.465402 -0.520248
14.5218 73.6214 37.5384 -0.716061 0.465402 -0.520248
26.2364 73.6214 21.4146 -0.716061 0.465402 -0.520248
22.7423 62.8692 16.6053 -0.273511 0.465402 -0.84178
26.2364 73.6214 21.4146 -0.273511 0.465402 -0.84178
45.1912 62.8692 9.31118 -0.273511 0.465402 -0.84178
45.1912 62.8692 9.31118 -0.273511 0.465402 -0.84178
26.2364 73.6214 21.4146 -0.273511 0.465402 -0.84178
45.1912 73.6214 15.2558 -0.273511 0.465402 -0.84178
45.1912 62.8692 9.31118 0.273511 0.465402 -0.84178
45.1912 73.6214 15.2558 0.273511 0.465402 -0.84178
67.64 62.8692 16.6053 0.273511 0.465402 -0.84178
67.64 62.8692 16.6053 0.273511 0.465402 -0.84178
45.1912 73.6214 15.2558 0.273511 0.465402 -0.84178
64.1459 73.6214 21.4146 0.273511 0.465402 -0.84178
67.64 62.8692 16.6053 0.716061 0.465402 -0.520248
64.1459 73.6214 21.4146 0.716061 0.465402 -0.520248
81.5142 62.8692 35.7014 0.716061 0.465402 -0.520248
81.5142 62.8692 35.7014 0.716061 0.465402 -0.520248
64.1459 73.6214 21.4146 0.716061 0.465402 -0.520248
75.8605 73.6214 37.5384 0.716061 0.465402 -0.520248
81.5142 62.8692 35.7014 0.8851 0.465402 -5.20384e-16
75.8605 73.6214 37.5384 0.8851 0.465402 -5.20384e-16
81.5142 62.8692 59.3056 0.8851 0.465402 -5.20384e-16
81.5142 62.8692 59.3056 0.8851 0.465402 -5.20384e-16
75.8605 73.6214 37.5384 0.8851 0.465402 -5.20384e-16
75.8605 73.6214 57.4686 0.8851 0.465402 -5.20384e-16
81.5142 62.8692 59.3056 0.716061 0.465402 0.520248
75.8605 73.6214 57.4686 0.716061 0.465402 0.520248
67.64 62.8692 78.4017 0.716061 0.465402 0.520248
67.64 62.8692 78.4017 0.716061 0.465402 0.520248
75.8605 73.6214 57.4686 0.716061 0.465402 0.520248
64.1459 73.6214 73.5924 0.716061 0.465402 0.520248
67.64 62.8692 78.4017 0.273511 0.465402 0.84178
64.1459 73.6214 73.5924 0.273511 0.465402 0.84178
45.1912 62.8692 85.6958 0.273511 0.465402 0.84178
45.1912 62.8692 85.6958 0.273511 0.465402 0.84178
64.1459 73.6214 73.5924 0.273511 0.465402 0.84178
45.1912 73.6214 79.7512 0.273511 0.465402 0.84178
45.1912 62.8692 85.6958 -0.273511 0.465402 0.84178
45.1912 73.6214 79.7512 -0.273511 0.465402 0.84178
22.7423 62.8692 78.4017 -0.273511 0.465402 0.84178
22.7423 62.8692 78.4017 -0.273511 0.465402 0.84178
45.1912 73.6214 79.7512 -0.273511 0.465402 0.84178
26.2364 73.6214 73.5924 -0.273511 0.465402 0.84178
8.8681 62.8692 35.7014 -0.928947 0.370212 5.46164e-16
4.52786 51.9786 34.2912 -0.928947 0.370212 5.46164e-16
8.8681 62.8692 59.3056 -0.928947 0.370212 5.46164e-16
8.8681 62.8692 59.3056 -0.928947 0.370212 5.46164e-16
4.52786 51.9786 34.2912 -0.928947 0.370212 5.46164e-16
4.52786 51.9786 60.7158 -0.928947 0.370212 5.46164e-16
22.7423 62.8692 16.6053 -0.751534 0.370212 -0.546021
20.0599 51.9786 12.9132 -0.751534 0.370212 -0.546021
8.8681 62.8692 35.7014 -0.751534 0.370212 -0.546021
8.8681 62.8692 35.7014 -0.751534 0.370212 -0.546021
20.0599 51.9786 12.9132 -0.751534 0.370212 -0.546021
4.52786 51.9786 34.2912 -0.751534 0.370212 -0.546021
8.8681 62.8692 59.3056 -0.751534 0.370212 0.546021
4.52786 51.9786 60.7158 -0.751534 0.370212 0.546021
22.7423 62.8692 78.4017 -0.751534 0.370212 0.546021
22.7423 62.8692 78.4017 -0.751534 0.370212 0.546021
4.52786 51.9786 60.7158 -0.751534 0.370212 0.546021
20.0599 51.9786 82.0938 -0.751534 0.370212 0.546021
22.7423 62.8692 78.4017 -0.28706 0.370212 0.883481
20.0599 51.9786 82.0938 -0.28706 0.370212 0.883481
45.1912 62.8692 85.6958 -0.28706 0.370212 0.883481
45.1912 62.8692 85.6958 -0.28706 0.370212 0.883481
20.0599 51.9786 82.0938 -0.28706 0.370212 0.883481
45.1912 51.9786 90.2594 -0.28706 0.370212 0.883481
45.1912 62.8692 85.6958 0.28706 0.370212 0.883481
45.1912 51.9786 90.2594 0.28706 0.370212 0.883481
67.64 62.8692 78.4017 0.28706 0.370212 0.883481
67.64 62.8692 78.4017 0.28706 0.370212 0.883481
45.1912 51.9786 90.2594 0.28706 0.370212 0.883481
70.3225 51.9786 82.0938 0.28706 0.370212 0.883481
67.64 62.8692 78.4017 0.751534 0.370212 0.546021
70.3225 51.9786 82.0938 0.751534 0.370212 0.546021
81.5142 62.8692 59.3056 0.751534 0.370212 0.546021
81.5142 62.8692 59.3056 0.751534 0.370212 0.546021
70.3225 51.9786 82.0938 0.751534 0.370212 0.546021
85.8545 51.9786 60.7158 0.751534 0.370212 0.546021
81.5142 62.8692 59.3056 0.928947 0.370212 -5.46164e-16
85.8545 51.9786 60.7158 0.928947 0.370212 -5.46164e-16
81.5142 62.8692 35.7014 0.928947 0.370212 -5.46164e-16
81.5142 62.8692 35.7014 0.928947 0.370212 -5.46164e-16
85.8545 51.9786 60.7158 0.928947 0.370212 -5.46164e-16
85.8545 51.9786 34.2912 0.928947 0.370212 -5.46164e-16
81.5142 62.8692 35.7014 0.751534 0.370212 -0.546021
85.8545 51.9786 34.2912 0.751534 0.370212 -0.546021
67.64 62.8692 16.6053 0.751534 0.370212 -0.546021
67.64 62.8692 16.6053 0.751534 0.370212 -0.546021
85.8545 51.9786 34.2912 0.751534 0.370212 -0.546021
70.3225 51.9786 12.9132 0.751534 0.370212 -0.546021
67.64 62.8692 16.6053 0.28706 0.370212 -0.883481
70.3225 51.9786 12.9132 0.28706 0.370212 -0.883481
45.1912 62.8692 9.31118 0.28706 0.370212 -0.883481
45.1912 62.8692 9.31118 0.28706 0.370212 -0.883481
70.3225 51.9786 12.9132 0.28706 0.370212 -0.883481
45.1912 51.9786 4.74758 0.28706 0.370212 -0.883481
45.1912 62.8692 9.31118 -0.28706 0.370212 -0.883481
45.1912 51.9786 4.74758 -0.28706 0.370212 -0.883481
22.7423 62.8692 16.6053 -0.28706 0.370212 -0.883481
22.7423 62.8692 16.6053 -0.28706 0.370212 -0.883481
45.1912 51.9786 4.74758 -0.28706 0.370212 -0.883481
20.0599 51.9786 12.9132 -0.28706 0.370212 -0.883481
45.1912 51.9786 4.74758 -0.298361 0.260346 -0.91826
45.1912 39.9714 1.34328 -0.298361 0.260346 -0.91826
20.0599 51.9786 12.9132 -0.298361 0.260346 -0.91826
20.0599 51.9786 12.9132 -0.298361 0.260346 -0.91826
45.1912 39.9714 1.34328 -0.298361 0.260346 -0.91826
18.0589 39.9714 10.1591 -0.298361 0.260346 -0.91826
70.3225 51.9786 12.9132 0.298361 0.260346 -0.91826
72.3235 39.9714 10.1591 0.298361 0.260346 -0.91826
45.1912 51.9786 4.74758 0.298361 0.260346 -0.91826
45.1912 51.9786 4.74758 0.298361 0.260346 -0.91826
72.3235 39.9714 10.1591 0.298361 0.260346 -0.91826
45.1912 39.9714 1.34328 0.298361 0.260346 -0.91826
20.0599 51.9786 12.9132 -0.781118 0.260346 -0.567516
18.0589 39.9714 10.1591 -0.781118 0.260346 -0.567516
4.52786 51.9786 34.2912 -0.781118 0.260346 -0.567516
4.52786 51.9786 34.2912 -0.781118 0.260346 -0.567516
18.0589 39.9714 10.1591 -0.781118 0.260346 -0.567516
1.29018 39.9714 33.2392 -0.781118 0.260346 -0.567516
4.52786 51.9786 34.2912 -0.965515 0.260346 1.26768e-16
1.29018 39.9714 33.2392 -0.965515 0.260346 1.26768e-16
4.52786 51.9786 60.7158 -0.965515 0.260346 1.26768e-16
4.52786 51.9786 60.7158 -0.965515 0.260346 1.26768e-16
1.29018 39.9714 33.2392 -0.965515 0.260346 1.26768e-16
1.29018 39.9714 61.7678 -0.965515 0.260346 1.26768e-16
4.52786 51.9786 60.7158 -0.781118 0.260346 0.567516
1.29018 39.9714 61.7678 -0.781118 0.260346 0.567516
20.0599 51.9786 82.0938 -0.781118 0.260346 0.567516
20.0599 51.9786 82.0938 -0.781118 0.260346 0.567516
1.29018 39.9714 61.7678 -0.781118 0.260346 0.567516
18.0589 39.9714 84.8479 -0.781118 0.260346 0.567516
20.0599 51.9786 82.0938 -0.298361 0.260346 0.91826
18.0589 39.9714 84.8479 -0.298361 0.260346 0.91826
45.1912 51.9786 90.2594 -0.298361 0.260346 0.91826
45.1912 51.9786 90.2594 -0.298361 0.260346 0.91826
18.0589 39.9714 84.8479 -0.298361 0.260346 0.91826
45.1912 39.9714 93.6637 -0.298361 0.260346 0.91826
45.1912 51.9786 90.2594 0.298361 0.260346 0.91826
45.1912 39.9714 93.6637 0.298361 0.260346 0.91826
70.3225 51.9786 82.0938 0.298361 0.260346 0.91826
70.3225 51.9786 82.0938 0.298361 0.260346 0.91826
45.1912 39.9714 93.6637 0.298361 0.260346 0.91826
72.3235 39.9714 84.8479 0.298361 0.260346 0.91826
70.3225 51.9786 82.0938 0.781118 0.260346 0.567516
72.3235 39.9714 84.8479 0.781118 0.260346 0.567516
85.8545 51.9786 60.7158 0.781118 0.260346 0.567516
85.8545 51.9786 60.7158 0.781118 0.260346 0.567516
72.3235 39.9714 84.8479 0.781118 0.260346 0.567516
89.0921 39.9714 61.7678 0.781118 0.260346 0.567516
85.8545 51.9786 60.7158 0.965515 0.260346 -2.53537e-16
89.0921 39.9714 61.7678 0.965515 0.260346 -2.53537e-16
85.8545 51.9786 34.2912 0.965515 0.260346 -2.53537e-16
85.8545 51.9786 34.2912 0.965515 0.260346 -2.53537e-16
89.0921 39.9714 61.7678 0.965515 0.260346 -2.53537e-16
89.0921 39.9714 33.2392 0.965515 0.260346 -2.53537e-16
85.8545 51.9786 34.2912 0.781118 0.260346 -0.567516
89.0921 39.9714 33.2392 0.781118 0.260346 -0.567516
70.3225 51.9786 12.9132 0.781118 0.260346 -0.567516
70.3225 51.9786 12.9132 0.781118 0.260346 -0.567516
89.0921 39.9714 33.2392 0.781118 0.260346 -0.567516
72.3235 39.9714 10.1591 0.781118 0.260346 -0.567516
18.0589 39.9714 10.1591 -0.804764 0.102402 -0.584695
17.2693 27.5613 9.07236 -0.804764 0.102402 -0.584695
1.29018 39.9714 33.2392 -0.804764 0.102402 -0.584695
1.29018 39.9714 33.2392 -0.804764 0.102402 -0.584695
17.2693 27.5613 9.07236 -0.804764 0.102402 -0.584695
0.0126474 27.5613 32.8241 -0.804764 0.102402 -0.584695
45.1912 39.9714 1.34328 -0.307393 0.102402 -0.946057
45.1912 27.5613 0 -0.307393 0.102402 -0.946057
18.0589 39.9714 10.1591 -0.307393 0.102402 -0.946057
18.0589 39.9714 10.1591 -0.307393 0.102402 -0.946057
45.1912 27.5613 0 -0.307393 0.102402 -0.946057
17.2693 27.5613 9.07236 -0.307393 0.102402 -0.946057
1.29018 39.9714 33.2392 -0.994743 0.102402 0
0.0126474 27.5613 32.8241 -0.994743 0.102402 0
1.29018 39.9714 61.7678 -0.994743 0.102402 0
1.29018 39.9714 61.7678 -0.994743 0.102402 0
0.0126474 27.5613 32.8241 -0.994743 0.102402 0
0.0126474 27.5613 62.1829 -0.994743 0.102402 0
1.29018 39.9714 61.7678 -0.804764 0.102402 0.584695
0.0126474 27.5613 62.1829 -0.804764 0.102402 0.584695
18.0589 39.9714 84.8479 -0.804764 0.102402 0.584695
18.0589 39.9714 84.8479 -0.804764 0.102402 0.584695
0.0126474 27.5613 62.1829 -0.804764 0.102402 0.584695
17.2693 27.5613 85.9346 -0.804764 0.102402 0.584695
18.0589 39.9714 84.8479 -0.307393 0.102402 0.946057
17.2693 27.5613 85.9346 -0.307393 0.102402 0.946057
45.1912 39.9714 93.6637 -0.307393 0.102402 0.946057
45.1912 39.9714 93.6637 -0.307393 0.102402 0.946057
17.2693 27.5613 85.9346 -0.307393 0.102402 0.946057
45.1912 27.5613 95.007 -0.307393 0.102402 0.946057
45.1912 39.9714 93.6637 0.307393 0.102402 0.946057
45.1912 27.5613 95.007 0.307393 0.102402 0.946057
72.3235 39.9714 84.8479 0.307393 0.102402 0.946057
72.3235 39.9714 84.8479 0.307393 0.102402 0.946057
45.1912 27.5613 95.007 0.307393 0.102402 0.946057
73.113 27.5613 85.9346 0.307393 0.102402 0.946057
72.3235 39.9714 84.8479 0.804764 0.102402 0.584695
73.113 27.5613 85.9346 0.804764 0.102402 0.584695
89.0921 39.9714 61.7678 0.804764 0.102402 0.584695
89.0921 39.9714 61.7678 0.804764 0.102402 0.584695
73.113 27.5613 85.9346 0.804764 0.102402 0.584695
90.3697 27.5613 62.1829 0.804764 0.102402 0.584695
89.0921 39.9714 61.7678 0.994743 0.102402 0
90.3697 27.5613 62.1829 0.994743 0.102402 0
89.0921 39.9714 33.2392 0.994743 0.102402 0
89.0921 39.9714 33.2392 0.994743 0.102402 0
90.3697 27.5613 62.1829 0.994743 0.102402 0
90.3697 27.5613 32.8241 0.994743 0.102402 0
89.0921 39.9714 33.2392 0.804764 0.102402 -0.584695
90.3697 27.5613 32.8241 0.804764 0.102402 -0.584695
72.3235 39.9714 10.1591 0.804764 0.102402 -0.584695
72.3235 39.9714 10.1591 0.804764 0.102402 -0.584695
90.3697 27.5613 32.8241 0.804764 0.102402 -0.584695
73.113 27.5613 9.07236 0.804764 0.102402 -0.584695
72.3235 39.9714 10.1591 0.307393 0.102402 -0.946057
73.113 27.5613 9.07236 0.307393 0.102402 -0.946057
45.1912 39.9714 1.34328 0.307393 0.102402 -0.946057
45.1912 39.9714 1.34328 0.307393 0.102402 -0.946057
73.113 27.5613 9.07236 0.307393 0.102402 -0.946057
45.1912 27.5613 0 0.307393 0.102402 -0.946057
90.3697 27.5613 62.1829 0.988042 -0.154184 4.67044e-16
88.4705 15.3911 61.5658 0.988042 -0.154184 4.67044e-16
90.3697 27.5613 32.8241 0.988042 -0.154184 4.67044e-16
90.3697 27.5613 32.8241 0.988042 -0.154184 4.67044e-16
88.4705 15.3911 61.5658 0.988042 -0.154184 4.67044e-16
88.4705 15.3911 33.4412 0.988042 -0.154184 4.67044e-16
73.113 27.5613 85.9346 0.799343 -0.154184 0.580757
71.9393 15.3911 84.3191 0.799343 -0.154184 0.580757
90.3697 27.5613 62.1829 0.799343 -0.154184 0.580757
90.3697 27.5613 62.1829 0.799343 -0.154184 0.580757
71.9393 15.3911 84.3191 0.799343 -0.154184 0.580757
88.4705 15.3911 61.5658 0.799343 -0.154184 0.580757
90.3697 27.5613 32.8241 0.799343 -0.154184 -0.580757
88.4705 15.3911 33.4412 0.799343 -0.154184 -0.580757
73.113 27.5613 9.07236 0.799343 -0.154184 -0.580757
73.113 27.5613 9.07236 0.799343 -0.154184 -0.580757
88.4705 15.3911 33.4412 0.799343 -0.154184 -0.580757
71.9393 15.3911 10.6879 0.799343 -0.154184 -0.580757
73.113 27.5613 9.07236 0.305322 -0.154184 -0.939684
71.9393 15.3911 10.6879 0.305322 -0.154184 -0.939684
45.1912 27.5613 0 0.305322 -0.154184 -0.939684
45.1912 27.5613 0 0.305322 -0.154184 -0.939684
71.9393 15.3911 10.6879 0.305322 -0.154184 -0.939684
45.1912 15.3911 1.99689 0.305322 -0.154184 -0.939684
45.1912 27.5613 0 -0.305322 -0.154184 -0.939684
45.1912 15.3911 1.99689 -0.305322 -0.154184 -0.939684
17.2693 27.5613 9.07236 -0.305322 -0.154184 -0.939684
17.2693 27.5613 9.07236 -0.305322 -0.154184 -0.939684
45.1912 15.3911 1.99689 -0.305322 -0.154184 -0.939684
18.443 15.3911 10.6879 -0.305322 -0.154184 -0.939684
17.2693 27.5613 9.07236 -0.799343 -0.154184 -0.580757
18.443 15.3911 10.6879 -0.799343 -0.154184 -0.580757
0.0126474 27.5613 32.8241 -0.799343 -0.154184 -0.580757
0.0126474 27.5613 32.8241 -0.799343 -0.154184 -0.580757
18.443 15.3911 10.6879 -0.799343 -0.154184 -0.580757
1.9118 15.3911 33.4412 -0.799343 -0.154184 -0.580757
0.0126474 27.5613 32.8241 -0.988042 -0.154184 -2.33522e-16
1.9118 15.3911 33.4412 -0.988042 -0.154184 -2.33522e-16
0.0126474 27.5613 62.1829 -0.988042 -0.154184 -2.33522e-16
0.0126474 27.5613 62.1829 -0.988042 -0.154184 -2.33522e-16
1.9118 15.3911 33.4412 -0.988042 -0.154184 -2.33522e-16
1.9118 15.3911 61.5658 -0.988042 -0.154184 -2.33522e-16
0.0126474 27.5613 62.1829 -0.799343 -0.154184 0.580757
1.9118 15.3911 61.5658 -0.799343 -0.154184 0.580757
17.2693 27.5613 85.9346 -0.799343 -0.154184 0.580757
17.2693 27.5613 85.9346 -0.799343 -0.154184 0.580757
1.9118 15.3911 61.5658 -0.799343 -0.154184 0.580757
18.443 15.3911 84.3191 -0.799343 -0.154184 0.580757
17.2693 27.5613 85.9346 -0.305322 -0.154184 0.939684
18.443 15.3911 84.3191 -0.305322 -0.154184 0.939684
45.1912 27.5613 95.007 -0.305322 -0.154184 0.939684
45.1912 27.5613 95.007 -0.305322 -0.154184 0.939684
18.443 15.3911 84.3191 -0.305322 -0.154184 0.939684
45.1912 15.3911 93.0101 -0.305322 -0.154184 0.939684
45.1912 27.5613 95.007 0.305322 -0.154184 0.939684
45.1912 15.3911 93.0101 0.305322 -0.154184 0.939684
73.113 27.5613 85.9346 0.305322 -0.154184 0.939684
73.113 27.5613 85.9346 0.305322 -0.154184 0.939684
45.1912 15.3911 93.0101 0.305322 -0.154184 0.939684
71.9393 15.3911 84.3191 0.305322 -0.154184 0.939684
82.2694 5.85083 59.5509 0.678317 -0.544985 0.492826
88.4705 15.3911 61.5658 0.678317 -0.544985 0.492826
68.1068 5.85083 79.0441 0.678317 -0.544985 0.492826
68.1068 5.85083 79.0441 0.678317 -0.544985 0.492826
88.4705 15.3911 61.5658 0.678317 -0.544985 0.492826
71.9393 15.3911 84.3191 0.678317 -0.544985 0.492826
82.2694 5.85083 35.4561 0.838446 -0.544985 -2.41457e-16
88.4705 15.3911 33.4412 0.838446 -0.544985 -2.41457e-16
82.2694 5.85083 59.5509 0.838446 -0.544985 -2.41457e-16
82.2694 5.85083 59.5509 0.838446 -0.544985 -2.41457e-16
88.4705 15.3911 33.4412 0.838446 -0.544985 -2.41457e-16
88.4705 15.3911 61.5658 0.838446 -0.544985 -2.41457e-16
68.1068 5.85083 79.0441 0.259094 -0.544985 0.79741
71.9393 15.3911 84.3191 0.259094 -0.544985 0.79741
45.1912 5.85083 86.4898 0.259094 -0.544985 0.79741
45.1912 5.85083 86.4898 0.259094 -0.544985 0.79741
71.9393 15.3911 84.3191 0.259094 -0.544985 0.79741
45.1912 15.3911 93.0101 0.259094 -0.544985 0.79741
45.1912 5.85083 86.4898 -0.259094 -0.544985 0.79741
45.1912 15.3911 93.0101 -0.259094 -0.544985 0.79741
22.2756 5.85083 79.0441 -0.259094 -0.544985 0.79741
22.2756 5.85083 79.0441 -0.259094 -0.544985 0.79741
45.1912 15.3911 93.0101 -0.259094 -0.544985 0.79741
18.443 15.3911 84.3191 -0.259094 -0.544985 0.79741
22.2756 5.85083 79.0441 -0.678317 -0.544985 0.492826
18.443 15.3911 84.3191 -0.678317 -0.544985 0.492826
8.11294 5.85083 59.5509 -0.678317 -0.544985 0.492826
8.11294 5.85083 59.5509 -0.678317 -0.544985 0.492826
18.443 15.3911 84.3191 -0.678317 -0.544985 0.492826
1.9118 15.3911 61.5658 -0.678317 -0.544985 0.492826
8.11294 5.85083 59.5509 -0.838446 -0.544985 1.20729e-16
1.9118 15.3911 61.5658 -0.838446 -0.544985 1.20729e-16
8.11294 5.85083 35.4561 -0.838446 -0.544985 1.20729e-16
8.11294 5.85083 35.4561 -0.838446 -0.544985 1.20729e-16
1.9118 15.3911 61.5658 -0.838446 -0.544985 1.20729e-16
1.9118 15.3911 33.4412 -0.838446 -0.544985 1.20729e-16
8.11294 5.85083 35.4561 -0.678317 -0.544985 -0.492826
1.9118 15.3911 33.4412 -0.678317 -0.544985 -0.492826
22.2756 5.85083 15.9629 -0.678317 -0.544985 -0.492826
22.2756 5.85083 15.9629 -0.678317 -0.544985 -0.492826
1.9118 15.3911 33.4412 -0.678317 -0.544985 -0.492826
18.443 15.3911 10.6879 -0.678317 -0.544985 -0.492826
22.2756 5.85083 15.9629 -0.259094 -0.544985 -0.79741
18.443 15.3911 10.6879 -0.259094 -0.544985 -0.79741
45.1912 5.85083 8.51716 -0.259094 -0.544985 -0.79741
45.1912 5.85083 8.51716 -0.259094 -0.544985 -0.79741
18.443 15.3911 10.6879 -0.259094 -0.544985 -0.79741
45.1912 15.3911 1.99689 -0.259094 -0.544985 -0.79741
45.1912 5.85083 8.51716 0.259094 -0.544985 -0.79741
45.1912 15.3911 1.99689 0.259094 -0.544985 -0.79741
68.1068 5.85083 15.9629 0.259094 -0.544985 -0.79741
68.1068 5.85083 15.9629 0.259094 -0.544985 -0.79741
45.1912 15.3911 1.99689 0.259094 -0.544985 -0.79741
71.9393 15.3911 10.6879 0.259094 -0.544985 -0.79741
68.1068 5.85083 15.9629 0.678317 -0.544985 -0.492826
71.9393 15.3911 10.6879 0.678317 -0.544985 -0.492826
82.2694 5.85083 35.4561 0.678317 -0.544985 -0.492826
82.2694 5.85083 35.4561 0.678317 -0.544985 -0.492826
71.9393 15.3911 10.6879 0.678317 -0.544985 -0.492826
88.4705 15.3911 33.4412 0.678317 -0.544985 -0.492826
28.8483 0.0128057 25.0095 -0.148703 -0.876604 -0.45766
22.2756 5.85083 15.9629 -0.148703 -0.876604 -0.45766
45.1912 0.0128057 19.6993 -0.148703 -0.876604 -0.45766
45.1912 0.0128057 19.6993 -0.148703 -0.876604 -0.45766
22.2756 5.85083 15.9629 -0.148703 -0.876604 -0.45766
45.1912 5.85083 8.51716 -0.148703 -0.876604 -0.45766
18.7478 0.0128057 38.9115 -0.389309 -0.876604 -0.28285
8.11294 5.85083 35.4561 -0.389309 -0.876604 -0.28285
28.8483 0.0128057 25.0095 -0.389309 -0.876604 -0.28285
28.8483 0.0128057 25.0095 -0.389309 -0.876604 -0.28285
8.11294 5.85083 35.4561 -0.389309 -0.876604 -0.28285
22.2756 5.85083 15.9629 -0.389309 -0.876604 -0.28285
45.1912 0.0128057 19.6993 0.148703 -0.876604 -0.45766
45.1912 5.85083 8.51716 0.148703 -0.876604 -0.45766
61.534 0.0128057 25.0095 0.148703 -0.876604 -0.45766
61.534 0.0128057 25.0095 0.148703 -0.876604 -0.45766
45.1912 5.85083 8.51716 0.148703 -0.876604 -0.45766
68.1068 5.85083 15.9629 0.148703 -0.876604 -0.45766
61.534 0.0128057 25.0095 0.389309 -0.876604 -0.28285
68.1068 5.85083 15.9629 0.389309 -0.876604 -0.28285
71.6345 0.0128057 38.9115 0.389309 -0.876604 -0.28285
71.6345 0.0128057 38.9115 0.389309 -0.876604 -0.28285
68.1068 5.85083 15.9629 0.389309 -0.876604 -0.28285
82.2694 5.85083 35.4561 0.389309 -0.876604 -0.28285
71.6345 0.0128057 38.9115 0.481212 -0.876604 -1.94314e-16
82.2694 5.85083 35.4561 0.481212 -0.876604 -1.94314e-16
71.6345 0.0128057 56.0955 0.481212 -0.876604 -1.94314e-16
71.6345 0.0128057 56.0955 0.481212 -0.876604 -1.94314e-16
82.2694 5.85083 35.4561 0.481212 -0.876604 -1.94314e-16
82.2694 5.85083 59.5509 0.481212 -0.876604 -1.94314e-16
71.6345 0.0128057 56.0955 0.389309 -0.876604 0.28285
82.2694 5.85083 59.5509 0.389309 -0.876604 0.28285
61.534 0.0128057 69.9976 0.389309 -0.876604 0.28285
61.534 0.0128057 69.9976 0.389309 -0.876604 0.28285
82.2694 5.85083 59.5509 0.389309 -0.876604 0.28285
68.1068 5.85083 79.0441 0.389309 -0.876604 0.28285
61.534 0.0128057 69.9976 0.148703 -0.876604 0.45766
68.1068 5.85083 79.0441 0.148703 -0.876604 0.45766
45.1912 0.0128057 75.3077 0.148703 -0.876604 0.45766
45.1912 0.0128057 75.3077 0.148703 -0.876604 0.45766
68.1068 5.85083 79.0441 0.148703 -0.876604 0.45766
45.1912 5.85083 86.4898 0.148703 -0.876604 0.45766
45.1912 0.0128057 75.3077 -0.148703 -0.876604 0.45766
45.1912 5.85083 86.4898 -0.148703 -0.876604 0.45766
28.8483 0.0128057 69.9976 -0.148703 -0.876604 0.45766
28.8483 0.0128057 69.9976 -0.148703 -0.876604 0.45766
45.1912 5.85083 86.4898 -0.148703 -0.876604 0.45766
22.2756 5.85083 79.0441 -0.148703 -0.876604 0.45766
28.8483 0.0128057 69.9976 -0.389309 -0.876604 0.28285
22.2756 5.85083 79.0441 -0.389309 -0.876604 0.28285
18.7478 0.0128057 56.0955 -0.389309 -0.876604 0.28285
18.7478 0.0128057 56.0955 -0.389309 -0.876604 0.28285
22.2756 5.85083 79.0441 -0.389309 -0.876604 0.28285
8.11294 5.85083 59.5509 -0.389309 -0.876604 0.28285
18.7478 0.0128057 56.0955 -0.481212 -0.876604 -2.42893e-17
8.11294 5.85083 59.5509 -0.481212 -0.876604 -2.42893e-17
18.7478 0.0128057 38.9115 -0.481212 -0.876604 -2.42893e-17
18.7478 0.0128057 38.9115 -0.481212 -0.876604 -2.42893e-17
8.11294 5.85083 59.5509 -0.481212 -0.876604 -2.42893e-17
8.11294 5.85083 35.4561 -0.481212 -0.876604 -2.42893e-17
3 0 1 2
3 3 4 5
3 6 7 8
3 9 10 11
3 12 13 14
3 15 16 17
3 18 19 20
3 21 22 23
3 24 25 26
3 27 28 29
3 30 31 32
3 33 34 35
3 36 37 38
3 39 40 41
3 42 43 44
3 45 46 47
3 48 49 50
3 51 52 53
3 54 55 56
3 57 58 59
3 60 61 62
3 63 64 65
3 66 67 68
3 69 70 71
3 72 73 74
3 75 76 77
3 78 79 80
3 81 82 83
3 84 85 86
3 87 88 89
3 90 91 92
3 93 94 95
3 96 97 98
3 99 100 101
3 102 103 104
3 105 106 107
3 108 109 110
3 111 112 113
3 114 115 116
3 117 118 119
3 120 121 122
3 123 124 125
3 126 127 128
3 129 130 131
3 132 133 134
3 135 136 137
3 138 139 140
3 141 142 143
3 144 145 146
3 147 148 149
3 150 151 152
3 153 154 155
3 156 157 158
3 159 160 161
3 162 163 164
3 165 166 167
3 168 169 170
3 171 172 173
3 174 175 176
3 177 178 179
3 180 181 182
3 183 184 185
3 186 187 188
3 189 190 191
3 192 193 194
3 195 196 197
3 198 199 200
3 201 202 203
3 204 205 206
3 207 208 209
3 210 211 212
3 213 214 215
3 216 217 218
3 219 220 221
3 222 223 224
3 225 226 227
3 228 229 230
3 231 232 233
3 234 235 236
3 237 238 239
3 240 241 242
3 243 244 245
3 246 247 248
3 249 250 251
3 252 253 254
3 255 256 257
3 258 259 260
3 261 262 263
3 264 265 266
3 267 268 269
3 270 271 272
3 273 274 275
3 276 277 278
3 279 280 281
3 282 283 284
3 285 286 287
3 288 289 290
3 291 292 293
3 294 295 296
3 297 298 299
3 300 301 302
3 303 304 305
3 306 307 308
3 309 310 311
3 312 313 314
3 315 316 317
3 318 319 320
3 321 322 323
3 324 325 326
3 327 328 329
3 330 331 332
3 333 334 335
3 336 337 338
3 339 340 341
3 342 343 344
3 345 346 347
3 348 349 350
3 351 352 353
3 354 355 356
3 357 358 359
3 360 361 362
3 363 364 365
3 366 367 368
3 369 370 371
3 372 373 374
3 375 376 377
3 378 379 380
3 381 382 383
3 384 385 386
3 387 388 389
3 390 391 392
3 393 394 395
3 396 397 398
3 399 400 401
3 402 403 404
3 405 406 407
3 408 409 410
3 411 412 413
3 414 415 416
3 417 418 419
3 420 421 422
3 423 424 425
3 426 427 428
3 429 430 431
3 432 433 434
3 435 436 437
3 438 439 440
3 441 442 443
3 444 445 446
3 447 448 449
3 450 451 452
3 453 454 455
3 456 457 458
3 459 460 461
3 462 463 464
3 465 466 467
3 468 469 470
3 471 472 473
3 474 475 476
3 477 478 479
