ply
format ascii 1.0
comment VCGLIB generated
element vertex 342
property float x
property float y
property float z
property float nx
property float ny
property float nz
element face 560
property list uchar int vertex_indices
end_header
50.86982 26.26417 0.7592154 0.1598886 -1.758148 -0.5489048 
66.96384 28.09164 6.051727 1.135841 -2.593543 -2.208489 
45.15639 27.7354 0.7380142 0.2191322 -2.32351 0.2630022 
32.60476 26.11099 1.596915 -0.4369194 -2.136035 -1.28644 
29.36113 39.55778 3.721137 -2.247963 1.106256 -5.549669 
38.25608 35.45306 0.8977056 -0.8881683 0.8990765 -6.056923 
44.25031 28.78293 0.004545829 -0.4177385 0.1283086 -3.448637 
44.19118 28.44942 0.000137426 1.167447 0.3307539 -3.46878 
44.19226 28.44276 4.580896e-05 1.314822 -1.230732 -3.121332 
39.13871 29.37233 4.207573 -1.136269 -2.190393 0.3243688 
20.84499 28.21843 10.02881 -2.040964 -0.9436707 -2.272091 
16.53505 38.61448 11.07591 -3.981611 0.3299012 -4.315253 
46.50366 54.24207 4.856947 0.1917602 2.008271 -5.763743 
49.09487 35.04515 0.4581102 0.623946 0.757093 -6.088324 
58.75959 38.72186 2.853431 1.91031 0.9099159 -5.725763 
46.17852 28.44186 0 -1.168928 -0.07642829 -2.024055 
46.16582 28.6673 0.003053009 -1.307815 -0.007958248 -3.448888 
46.05184 28.94257 0.006526378 0.2106631 0.1267173 -3.131992 
46.03703 28.97834 0.00697638 0.2065378 0.1537095 -3.467013 
45.81381 29.22853 0.009910825 0.1288464 0.194651 -3.469359 
45.68445 29.30021 0.01070574 0.08732205 0.1922661 -3.13444 
45.52109 29.39074 0.01170544 0.06266879 0.2343103 -3.469613 
45.19116 29.44697 0.01230634 -0.006047774 0.2752717 -3.403769 
44.98299 29.42497 0.01207191 -0.105612 0.3467494 -3.395521 
44.69253 29.30896 0.01081083 -0.1164431 0.3306924 -3.121952 
44.40943 28.24407 5.193328 0.01010897 1.179448 -1.996673 
39.19116 26.40931 4.083103 -0.8730135 0.3132094 -1.555723 
39.19023 32.48004 17.00527 -0.2009668 -0.003628302 0.001690131 
20.61915 57.69284 15.01273 -3.568903 2.230783 -4.448523 
33.57422 57.07334 8.02278 -1.790234 2.195355 -5.480453 
42.73348 68.7453 11.56431 -0.3888537 2.957211 -5.366654 
58.04107 63.55184 11.06743 1.959553 2.581054 -5.180577 
67.44495 44.38669 8.326909 3.080679 1.462041 -5.138284 
72.86745 56.42184 17.19307 4.053842 2.183043 -4.03661 
76.97577 38.34582 14.03541 4.299881 0.7816767 -4.214601 
52.60892 30.16526 4.387267 -0.410474 -2.158609 2.063507 
70.43202 28.25272 11.24171 -0.6339887 -3.641973 0.5306487 
46.05719 28.24407 3.685525 0.5449778 -1.918614 0.164555 
7.309617 28.21415 24.57575 -2.687435 -0.2329238 -1.55553 
9.138921 49.36292 23.98094 -5.064984 1.538492 -2.978104 
31.19929 72.69395 16.93695 -2.226962 3.250656 -4.654891 
65.77036 70.86593 19.89085 3.348096 3.079128 -4.069965 
85.67935 41.24931 27.57833 5.443376 1.178815 -2.242476 
81.01048 27.44625 18.47039 1.988564 -2.675528 -1.49013 
89.57648 26.0741 35.57237 1.376075 -1.969918 -0.3367304 
86.96803 28.09401 53.03952 3.011682 -0.7899094 0.7832168 
85.6962 28.40277 32.68504 -2.028925 -2.826767 0.6608087 
46.03052 33.94628 44.80972 -0.1498379 1.624355 0.04769398 
83.07496 37.79346 30.16375 0 0 0 
46.02883 33.94623 44.8061 -0.1385994 1.502521 0.0441167 
7.62329 28.25047 64.00608 2.377409 -3.686828 -1.240909 
7.694695 33.84867 62.51366 2.850712 -0.3794399 -1.286922 
9.019754 33.84867 64.95903 2.736132 -0.4301469 -1.48262 
10.18066 33.84867 67.10144 2.61547 -0.2376829 -1.731018 
13.05525 33.84867 71.10292 2.54851 -0.1520099 -1.830734 
16.77931 33.84867 75.15964 2.216951 -0.1404387 -2.221429 
19.61264 28.24942 78.34124 1.678702 -3.58339 -2.216243 
13.22505 33.84867 71.33929 0.8336177 -0.03526162 -0.6816541 
11.29692 27.78411 74.57275 -2.016017 -2.557235 1.792096 
25.36537 27.53882 84.90805 -1.25525 -2.960121 2.159105 
2.371954 27.80599 57.47285 -2.603723 -2.820764 0.7788661 
3.336745 28.24971 46.24805 0.6767107 -3.484805 -0.04788809 
3.443431 44.78973 34.64704 -5.74474 1.110543 -1.590757 
27.16769 82.23083 27.31478 -2.054871 4.422858 -2.040516 
48.72481 82.33236 19.90721 0.3648311 4.32557 -2.918046 
63.70474 82.27681 28.40167 2.207337 4.475857 -1.932548 
78.19591 64.7424 30.81074 5.016883 2.641572 -2.061125 
84.1752 57.26667 47.3574 5.680745 2.202598 0.1040636 
77.44118 70.54382 52.24149 5.083422 3.005754 1.142168 
89.45504 39.42223 51.44491 5.735894 0.5688396 0.8808367 
83.32508 27.92925 64.5416 2.793408 -0.4095963 1.337933 
20.63865 51.59674 73.52838 3.745123 -2.067713 -4.415182 
13.39228 37.79346 70.52007 2.336121 -0.7828755 -1.949128 
14.05855 52.77203 65.42149 4.887421 -2.096902 -3.047587 
15.48929 37.79346 73.05492 2.216818 -0.7570713 -2.038467 
18.42047 37.79346 75.80749 2.095676 -0.7052532 -2.231672 
19.21928 37.79346 76.55762 1.922664 -0.7101705 -2.335147 
25.18345 33.84867 81.31161 0.3910711 -0.0644893 -0.6118727 
24.15737 33.84867 80.65581 1.685238 -0.2779048 -2.636731 
20.78675 33.84867 78.5015 1.8315 -0.3113122 -2.541247 
18.20292 33.84867 76.3468 1.999451 -0.3506454 -2.397674 
36.09814 28.25515 86.17294 0.2515004 -3.26722 -1.351769 
38.63226 26.72729 90.09043 -0.237699 -2.333514 1.946178 
0.7313438 27.79557 40.3928 -2.627857 -2.505645 -0.430887 
1.19379 38.99348 52.23311 -5.910439 0.8972164 0.8114642 
6.363629 57.46175 40.46641 -5.588072 2.273977 -0.6601346 
18.43377 71.49497 26.51573 -4.360707 3.035328 -2.793985 
40.0335 82.61501 24.26691 -0.2560517 3.913673 -0.7104891 
22.54165 82.50082 40.20395 -2.591527 2.605687 -0.4119036 
55.51469 82.59895 26.25612 0.2165437 3.855398 -0.3548132 
80.69819 57.06411 61.10042 5.228539 2.207478 2.394207 
71.79295 62.63989 70.67881 3.997977 2.579542 3.783859 
81.55264 38.97751 70.80556 4.874395 0.489054 3.296676 
70.5458 37.73907 82.05724 3.276728 0.23673 4.861675 
74.53139 28.12494 76.9159 2.134839 -0.5381426 2.289796 
65.66856 82.47482 38.30806 0.5193291 3.896821 -0.1460111 
63.94707 82.69073 55.6665 0.7006025 3.734576 0.2453322 
64.36495 82.14853 61.51425 2.419497 4.364042 2.032725 
70.85412 81.92105 43.57684 3.134464 4.303226 -0.2134226 
55.88852 71.9808 75.38377 1.825043 3.113149 4.880571 
56.42226 42.18042 87.77966 1.447353 0.8887833 5.715041 
58.20786 27.9278 85.92955 1.005915 -0.5996072 2.935432 
50.59127 82.63082 69.13195 0.5295923 4.54035 2.552036 
43.94088 63.66853 81.60487 -0.2080517 2.617551 5.467561 
61.68019 57.55151 80.43707 2.398229 2.268683 5.153127 
56.02442 82.45441 63.49984 -1.94231 2.134162 -1.940544 
35.69139 82.26479 68.43143 -1.074128 4.430787 2.642607 
27.03504 73.96986 70.45377 -3.021178 3.221074 3.99741 
31.59301 57.15138 81.68977 -2.051732 2.256271 5.325622 
25.49294 37.55093 85.49818 -2.769144 0.7662897 5.280445 
39.36885 39.31992 89.18733 -0.6443684 1.100405 5.957374 
17.94331 57.30205 73.12249 -3.972504 2.260806 4.03988 
12.27289 70.41434 45.04931 -5.11317 3.184267 -0.08241616 
46.51446 81.35023 24.12976 0 1.192093e-07 -2.384186e-07 
28.78796 48.11483 80.05506 1.841743 -1.148499 -3.306575 
23.35886 37.79346 79.5652 1.640868 -0.7045562 -2.543494 
24.31913 37.79346 80.09312 1.480626 -0.6509948 -2.693242 
32.60024 37.79346 83.91386 0.8829412 -0.7510668 -2.881219 
30.90155 37.79346 83.2413 1.131438 -0.6504813 -2.857679 
37.5563 37.79346 85.18636 0.1993748 -0.2166712 -0.7765142 
27.84276 37.79346 82.03024 1.295342 -0.6453391 -2.752367 
24.14858 70.46288 64.62334 3.841938 -2.854953 -3.921798 
34.47308 69.20788 72.64384 1.527771 -1.430034 -2.255702 
38.30772 82.35157 65.98072 0.738425 3.077765 -1.106022 
8.840906 57.14443 59.21229 -5.323448 2.224957 2.031079 
24.27243 82.41794 55.61557 -1.256162 1.511028 -0.09964752 
14.12404 69.18832 57.39651 -4.827639 3.092606 2.04174 
18.17959 69.65607 56.42334 2.515031 -1.351994 -1.540452 
13.28345 44.43349 74.17739 -4.369144 1.39169 4.050433 
5.397243 38.61209 65.06488 -5.358295 0.8046783 2.746272 
9.330539 37.79346 64.46173 2.754383 -0.8004442 -1.281473 
7.574706 47.00726 54.76588 2.136093 -0.7363532 -0.908937 
9.485991 37.79346 64.79211 2.651121 -0.7490837 -1.433472 
6.036607 33.84867 58.24125 2.911729 -0.3383864 -1.130015 
12.22771 37.79346 69.11235 2.432356 -0.7372311 -1.785334 
7.307362 37.79346 60.16226 1.773933 -0.5403714 -0.8347492 
5.806815 33.84867 57.64914 0.6558 -0.07621354 -0.2545097 
44.69116 27.98242 4.969402 -0.1440113 1.682622 -2.092846 
45.19116 26.36998 3.614269 -0.0721617 0.8109294 -0.9915301 
44.41663 29.07792 0.008170097 -0.2516785 0.2397169 -3.461027 
44.33759 28.93772 0.006448234 -0.2598912 0.1849319 -3.125281 
44.67075 29.30026 0.01071652 -0.1641993 0.3274768 -3.4591 
46.19116 32.09331 44.37923 -0.005042752 -0.0002843978 2.483584e-05 
44.32513 32.59163 44.33824 0 0 0 
69.70397 26.24454 8.905059 1.419195 4.76983 -2.284413 
73.96445 28.24447 12.90041 2.134246 0.2814472 -2.306114 
80.14875 26.24448 18.82891 2.16554 4.67053 -1.697922 
71.32259 26.24051 8.118447 1.792922 2.512318 -2.489149 
56.60287 26.24448 2.910304 0.7956511 1.290467 -1.802331 
64.74907 28.32728 7.35043 1.279033 1.052294 -2.696627 
55.14125 28.24447 3.094341 0.3894193 0.5382215 -1.008404 
45.19116 27.10121 1.738363 -0.06521315 4.545969 -2.927048 
41.61459 28.23715 3.550258 0.0134208 2.638397 -1.627613 
82.8811 28.24447 23.99118 2.762483 0.2378309 -1.48388 
86.80531 26.24448 31.60645 2.258375 3.435687 -0.8682948 
82.41609 26.23909 19.28938 2.510188 2.52015 -1.764689 
71.75303 2.170145 27.32139 2.540093 -5.389643 -1.651776 
68.786 8.408028e-07 33.31323 1.122943 -6.026718 -0.5310333 
67.25078 8.408028e-07 30.65416 0.9834329 -6.054486 -0.6439818 
65.41724 8.408028e-07 28.1913 0.9209598 -6.033828 -0.8084653 
63.47049 2.003402 19.18049 1.675167 -5.438576 -2.419049 
71.023 5.689784 18.52801 2.883229 -4.542696 -2.97592 
78.63537 6.995022 26.12602 3.86375 -4.211681 -2.174902 
75.79654 11.27225 16.95662 3.967477 -2.971596 -3.586412 
69.26656 11.0081 11.36026 3.008585 -3.05511 -4.333269 
79.17482 19.02948 16.67436 4.589556 -1.345382 -3.910558 
83.66153 19.01757 22.98426 5.254597 -1.336016 -2.935692 
73.75591 19.01752 11.16418 3.905262 -1.316749 -4.577544 
65.26319 18.97909 5.55388 2.699187 -1.399969 -5.353797 
61.75407 5.718983 12.01641 1.870471 -4.499149 -3.763837 
60.95811 8.408028e-07 23.98432 0.686011 -6.068617 -0.9104395 
58.3928 8.408028e-07 22.29709 0.5669494 -6.05631 -1.024724 
55.64896 8.408028e-07 20.91908 0.4840348 -5.994609 -1.222057 
52.72139 3.697002 11.20524 0.7643963 -4.845126 -3.561484 
59.34124 11.24428 6.043123 1.590634 -2.98933 -5.009076 
55.41466 19.66059 1.82174 0.8712415 -1.633051 -5.750984 
60.10039 26.2389 2.447392 1.045635 2.229343 -2.907273 
49.41624 18.06304 2.675052 0.2408308 -1.132042 -4.007603 
48.45208 13.37132 2.786208 0.5093741 -1.746884 -4.044797 
50.06894 26.23822 0.1855544 0.1442888 -0.4000293 -3.157858 
39.89849 26.24054 0.1973003 -0.2186711 -0.01140413 -2.442261 
35.11741 26.24448 2.571487 -0.582239 3.915769 -2.772994 
33.91953 28.24447 3.429 -0.9361932 0.8586151 -2.948474 
88.41513 28.24447 44.48135 1.983452 0.327756 -0.2989154 
88.95235 26.24448 45.85309 1.043479 3.613518 -0.1464322 
90.31859 26.24012 41.93321 3.073092 2.403794 -0.1958151 
87.73933 19.01749 32.45404 5.749219 -1.395952 -1.708543 
88.5295 26.23957 32.07898 2.933226 0.5236114 -0.914649 
89.52415 19.02347 42.47761 5.99232 -1.344298 -0.3389645 
85.04353 11.23115 33.19511 5.124159 -2.953946 -1.510378 
87.14697 11.71437 44.74477 5.292682 -2.944354 -0.07007835 
81.56165 5.906278 36.60425 4.098482 -4.459538 -0.9532547 
75.72987 1.912442 37.75441 2.792002 -5.490068 -0.758292 
79.61583 3.457588 46.26452 3.504605 -4.991442 0.1210136 
71.41592 8.408028e-07 42.09777 1.220786 -6.033679 -0.1121386 
70.88274 8.408028e-07 39.07399 1.125902 -6.062001 -0.2654123 
70.00212 8.408028e-07 36.13255 1.138217 -6.034069 -0.4524616 
45.19116 8.408028e-07 45.16301 0 -6.283183 0 
71.59444 8.408028e-07 45.16301 1.277821 -6.011084 0.003608648 
71.41592 8.408028e-07 48.22824 1.294029 -5.998796 0.1678276 
70.88274 8.408028e-07 51.25202 1.289656 -5.992103 0.2811844 
70.00212 8.408028e-07 54.19346 1.136374 -6.044399 0.3865247 
68.786 8.408028e-07 57.01277 1.026994 -6.064747 0.5170774 
67.25078 8.408028e-07 59.67184 0.9953981 -6.040445 0.6876661 
65.41724 8.408028e-07 62.13471 1.022297 -5.970228 0.9062288 
63.31019 8.408028e-07 64.36806 0.9507087 -5.971435 0.9768424 
60.95811 8.408028e-07 66.34169 0.7915095 -5.98971 1.061968 
58.3928 8.408028e-07 68.02892 0.6774301 -6.007917 1.091807 
55.64896 8.408028e-07 69.40694 0.475233 -6.051235 1.083937 
52.76371 8.408028e-07 70.45708 0.3115488 -6.024803 1.206411 
49.77604 8.408028e-07 71.16518 0.253654 -6.00244 1.27195 
46.72638 8.408028e-07 71.52162 0.0944154 -6.036163 1.216747 
45.19116 8.408028e-07 71.56631 -0.00192048 -6.042832 1.204854 
43.65595 8.408028e-07 71.52162 -0.1014533 -6.029073 1.232924 
40.60627 8.408028e-07 71.16518 -0.2694003 -5.980387 1.317325 
37.61861 8.408028e-07 70.45708 -0.3050393 -6.031023 1.191921 
34.73336 8.408028e-07 69.40694 -0.5117919 -6.02967 1.12424 
31.98952 8.408028e-07 68.02892 -0.6182363 -6.014738 1.109351 
29.42421 8.408028e-07 66.34169 -0.6832212 -6.056542 0.9504251 
27.07213 8.408028e-07 64.36806 -0.792997 -6.065906 0.8285623 
24.96507 8.408028e-07 62.13471 -0.9708294 -6.028126 0.7697789 
23.13154 8.408028e-07 59.67184 -1.081074 -5.999625 0.7286245 
21.59632 8.408028e-07 57.01277 -1.062509 -6.044164 0.5595757 
20.38019 8.408028e-07 54.19346 -1.09223 -6.060349 0.3934022 
19.49958 8.408028e-07 51.25202 -1.206042 -6.030811 0.2547611 
18.96641 8.408028e-07 48.22824 -1.237597 -6.023819 0.1682834 
18.78788 8.408028e-07 45.16301 -1.187304 -6.049692 0.003223833 
18.96641 8.408028e-07 42.09777 -1.219797 -6.031454 -0.1664704 
19.49958 8.408028e-07 39.07399 -1.195919 -6.035779 -0.246484 
20.38019 8.408028e-07 36.13255 -1.055061 -6.07661 -0.3736686 
21.59632 8.408028e-07 33.31323 -1.008643 -6.06934 -0.5273494 
23.13154 8.408028e-07 30.65416 -1.047865 -6.008489 -0.7417693 
24.96507 8.408028e-07 28.1913 -1.015491 -6.004499 -0.7999248 
27.07213 8.408028e-07 25.95795 -0.8081499 -6.061235 -0.8304398 
29.42421 8.408028e-07 23.98432 -0.6739787 -6.06777 -0.9220862 
31.98952 8.408028e-07 22.29709 -0.5900702 -6.02637 -1.094105 
34.73336 8.408028e-07 20.91908 -0.5355061 -5.99893 -1.190369 
37.61861 8.408028e-07 19.86893 -0.362431 -6.056839 -1.112316 
40.60627 8.408028e-07 19.16085 -0.1929709 -6.081318 -1.089904 
43.65595 8.408028e-07 18.80439 -0.0408544 -6.05947 -1.162571 
46.72638 8.408028e-07 18.80439 0.1309298 -5.973524 -1.352924 
49.77604 8.408028e-07 19.16085 0.2086622 -5.988305 -1.310631 
52.76371 8.408028e-07 19.86893 0.3938147 -5.988846 -1.266567 
39.80818 1.868258 14.06358 -0.5729545 -5.40094 -2.906598 
45.36541 5.713464 8.110649 0.1633343 -4.369067 -4.285004 
87.24991 27.24407 55.81372 1.707231 2.819939 0.6547173 
89.55625 26.23913 54.48393 4.093853 2.22512 0.7278741 
82.66508 6.88918 53.72633 4.368653 -4.110484 1.010708 
87.63749 15.59177 55.3128 5.572978 -2.028204 1.309335 
73.93163 2.148219 59.42057 2.738168 -5.333356 1.378147 
66.55576 4.276465 74.10733 2.222372 -4.643095 3.066388 
56.96111 2.097151 74.68621 1.047035 -5.455745 2.755807 
45.90454 3.198966 79.42494 0.1025945 -4.976302 3.462422 
35.6195 2.222208 75.74899 -0.9402096 -5.411842 2.849375 
24.11604 2.054562 69.07872 -1.960785 -5.409985 2.233972 
15.23839 2.164904 56.6202 -2.88782 -5.331731 1.066194 
13.29729 2.154991 44.7516 -3.033327 -5.391218 -0.02637836 
15.94223 1.894957 33.18905 -2.749022 -5.396582 -1.139293 
25.16203 2.012844 20.45805 -1.845621 -5.402905 -2.328211 
37.63685 7.909954 6.484777 -0.826918 -3.685593 -4.672078 
33.07141 15.56338 3.200854 -1.298243 -1.99225 -5.502193 
41.23116 15.67949 3.255035 -0.2468631 -1.391008 -4.068686 
28.75908 6.919798 10.43632 -1.895667 -4.130487 -4.00462 
21.18908 6.706527 15.40655 -2.797287 -4.116072 -3.503876 
23.14071 15.8037 7.410448 -2.855086 -1.974252 -4.963543 
29.60998 26.23977 2.658523 -1.093259 2.466971 -2.859795 
21.8338 26.24454 8.150171 -1.453663 4.323364 -2.518414 
16.95569 26.23979 9.682942 -1.904181 2.422196 -2.375369 
20.97925 28.24447 9.350151 -1.842571 0.8401028 -2.487311 
83.34955 26.24448 66.59792 2.031223 3.972589 1.302257 
83.85883 26.2402 68.84616 2.609052 0.2535199 1.586417 
85.95408 19.01766 62.777 5.444286 -1.376337 2.470352 
79.03555 18.62538 73.87344 4.579073 -1.443335 3.790563 
80.40752 8.582917 64.29891 4.234994 -3.534357 2.317402 
71.94305 5.636352 70.65816 3.168314 -4.560037 2.721385 
58.13829 7.020195 81.41637 1.497997 -4.138008 4.232346 
36.16652 6.940383 82.52811 -1.021517 -4.042912 4.437202 
26.6712 6.639488 78.61161 -2.16027 -4.231751 3.795092 
18.20649 5.672921 70.49568 -3.049951 -4.550626 2.807996 
13.15944 5.636613 63.60158 -3.508784 -4.614067 2.06547 
6.832604 8.922655 57.26413 -4.670457 -3.542575 1.39731 
6.825212 6.920725 47.1563 -4.472323 -4.100498 0.2560618 
7.378335 6.874882 38.87484 -4.418005 -4.133104 -0.7073401 
8.843189 7.430467 31.19675 -4.284991 -3.976607 -1.655971 
15.61208 5.64366 23.01504 -3.257726 -4.625915 -2.416198 
15.80703 15.42917 12.94833 -3.87383 -2.036262 -4.196481 
11.08129 26.24448 17.73975 -2.193621 3.93594 -1.910796 
6.689557 26.23907 21.23045 -2.590507 -0.1595822 -1.614894 
10.66271 28.24454 19.1522 -2.543233 2.074382 -1.746377 
11.86791 28.23259 19.93254 0.01006994 1.706963 0.01058654 
74.86511 26.2389 79.3283 2.012381 -0.2797656 2.436085 
69.56918 19.01759 82.27876 3.204159 -1.218951 5.03799 
74.33597 11.55451 75.22459 3.652915 -2.887549 3.87307 
61.07819 12.61334 84.38986 2.117715 -2.730683 5.019207 
48.06014 10.87223 86.47908 0.3991762 -3.175405 5.160347 
40.58952 15.49808 88.4837 -0.6350821 -2.065835 5.691615 
27.56101 12.61337 83.63796 -2.285249 -2.686998 4.984226 
15.92049 11.15536 74.76942 -3.680728 -2.989895 3.789944 
9.226882 11.14113 65.97961 -4.607442 -2.948959 2.690837 
1.665338 15.64946 47.89384 -5.719066 -1.915628 0.3592419 
2.240678 15.35297 38.1805 -5.656771 -1.994546 -0.8153441 
4.23945 15.67191 30.04621 -5.38016 -1.971118 -2.03348 
11.57639 10.95632 20.9817 -4.293728 -3.088051 -3.069781 
7.865924 19.39832 20.79715 -4.992989 -1.27354 -3.316306 
1.680592 26.24011 32.76355 -2.915004 2.094542 -0.7541341 
4.025146 26.24448 30.30106 -2.677198 1.416316 -1.128619 
4.08785 28.24447 31.77289 -2.944259 0.8525419 -0.9175161 
0.4425611 26.12963 45.70563 -4.341318 0.7807135 -0.2167653 
1.913227 26.24448 51.68517 -2.530529 4.414805 0.4511332 
4.530501 28.24447 59.84251 -2.970339 0.2611992 1.003641 
1.967182 28.24447 45.84464 -1.612905 1.123554 -0.1341043 
6.375887 26.24448 65.3841 -2.415139 4.670533 1.316384 
1.361853 26.23902 56.74453 -2.978995 2.469354 0.6948425 
6.313302 26.24027 68.30235 -2.665472 2.544268 1.549207 
11.50003 28.24454 72.2496 -2.492283 0.2244192 1.90457 
67.46033 27.13295 83.37672 1.861667 2.150704 3.560649 
68.82717 28.18391 79.85139 0.1492639 0.6653465 0.2562238 
56.46284 28.24447 86.897 0.8003989 0.9930587 2.965225 
55.2649 26.24448 87.75452 0.3799839 4.298752 2.849505 
60.35331 18.9844 86.90813 2.146568 -1.132503 5.622278 
55.86275 26.24096 89.17252 0.7523618 2.522436 3.058094 
50.61632 18.79552 89.16883 0.7568828 -1.452955 5.945124 
34.92342 19.01745 88.3653 -1.453742 -1.307729 5.843555 
25.23704 19.01754 84.83289 -2.704533 -1.347347 5.375754 
16.62646 19.01751 79.16187 -3.796213 -1.386092 4.636503 
9.627114 19.0235 71.76799 -4.833405 -1.417188 3.545927 
3.298153 19.34522 60.34561 -5.596081 -1.399028 2.036796 
12.44983 26.24035 76.44413 -2.205552 2.554776 2.152034 
15.0448 26.24448 76.89178 -1.973539 4.429996 2.083009 
18.70728 28.24407 79.18951 -1.705012 0.3781119 2.388672 
26.9805 26.24448 84.96112 -0.3606631 3.640578 1.084195 
23.53768 26.23865 84.99092 -1.462943 2.504431 2.696922 
40.88966 26.24443 88.71777 -0.3986803 4.323384 2.877688 
42.30109 28.24447 88.29565 -0.07360621 0.7400057 3.095418 
28.45252 28.24454 85.02019 -0.5582248 0.3840214 2.085366 
35.35192 26.24021 89.32331 -0.6732252 2.534392 3.000371 
45.70668 26.23972 90.41656 -0.00819405 2.51296 3.076221 
83.08482 28.34962 64.66492 2.419641 1.444688 1.241973 
75.73355 27.87172 74.5451 0.1461476 0.1237214 0.1147244 
81.88602 12.83063 24.06895 4.826443 -2.606424 -2.789911 
63.31019 8.408028e-07 25.95795 0.8652761 -6.03359 -0.8687965 
86.99017 28.24407 34.57806 0.5593141 0.2708898 -0.2170755 
3 0 1 2 
3 3 2 0 
3 0 2 3 
3 3 4 5 
3 5 6 3 
3 3 6 7 
3 7 8 3 
3 3 8 2 
3 3 9 10 
3 3 11 4 
3 12 5 4 
3 12 13 5 
3 13 14 0 
3 0 15 13 
3 13 15 16 
3 13 16 17 
3 17 18 13 
3 13 18 19 
3 13 19 20 
3 21 22 13 
3 20 21 13 
3 13 22 23 
3 13 23 24 
3 9 25 26 
3 27 9 26 
3 4 28 29 
3 12 29 30 
3 31 14 12 
3 32 14 31 
3 32 31 33 
3 1 14 32 
3 1 32 34 
3 1 0 14 
3 35 1 36 
3 35 37 2 
3 38 39 11 
3 29 28 40 
3 29 40 30 
3 12 30 31 
3 33 31 41 
3 42 34 33 
3 34 42 43 
3 43 36 1 
3 44 45 46 
3 47 48 49 
3 50 51 52 
3 50 52 53 
3 54 50 53 
3 55 56 57 
3 57 50 54 
3 58 56 59 
3 60 61 50 
3 38 62 39 
3 28 11 39 
3 40 63 64 
3 30 40 64 
3 64 65 41 
3 66 41 65 
3 67 66 68 
3 66 67 42 
3 69 42 67 
3 44 42 69 
3 44 43 42 
3 44 46 43 
3 69 70 45 
3 71 72 73 
3 71 74 72 
3 75 74 71 
3 71 76 75 
3 77 56 78 
3 79 56 80 
3 78 56 79 
3 59 56 81 
3 59 81 82 
3 83 60 84 
3 62 38 83 
3 62 85 39 
3 86 28 39 
3 63 40 86 
3 87 63 88 
3 87 64 63 
3 87 89 64 
3 68 90 67 
3 90 91 92 
3 90 92 69 
3 92 93 94 
3 94 70 92 
3 89 65 64 
3 95 65 89 
3 96 97 98 
3 96 98 95 
3 68 98 97 
3 91 68 97 
3 97 99 91 
3 93 100 101 
3 93 101 94 
3 97 102 99 
3 99 103 104 
3 100 104 103 
3 100 82 101 
3 82 81 101 
3 105 102 96 
3 96 102 97 
3 103 102 106 
3 107 103 106 
3 103 107 108 
3 109 110 108 
3 109 108 111 
3 85 112 86 
3 39 85 86 
3 113 87 89 
3 89 87 113 
3 114 115 71 
3 114 116 115 
3 114 117 118 
3 114 119 117 
3 118 120 114 
3 114 120 116 
3 71 73 121 
3 121 122 71 
3 105 123 102 
3 102 123 106 
3 111 108 107 
3 124 85 84 
3 88 86 112 
3 125 126 107 
3 126 112 124 
3 112 125 88 
3 112 126 125 
3 111 107 126 
3 125 106 123 
3 127 125 121 
3 85 124 112 
3 128 111 124 
3 124 111 126 
3 106 125 107 
3 123 121 125 
3 123 122 121 
3 127 121 73 
3 86 88 63 
3 85 62 84 
3 124 84 129 
3 124 129 128 
3 128 109 111 
3 110 103 108 
3 71 122 114 
3 82 100 110 
3 110 100 103 
3 103 99 102 
3 100 93 104 
3 93 91 104 
3 93 92 91 
3 91 99 104 
3 95 98 65 
3 70 69 92 
3 91 90 68 
3 69 67 90 
3 83 84 62 
3 60 129 84 
3 129 58 128 
3 58 109 128 
3 110 109 82 
3 71 115 76 
3 130 131 73 
3 73 132 130 
3 127 73 131 
3 68 66 98 
3 65 98 66 
3 83 61 60 
3 83 38 61 
3 60 58 129 
3 50 133 51 
3 60 50 58 
3 109 58 59 
3 59 82 109 
3 50 56 58 
3 80 56 55 
3 73 72 134 
3 73 134 132 
3 130 135 131 
3 69 45 44 
3 43 46 36 
3 42 33 66 
3 34 32 33 
3 41 66 33 
3 64 41 31 
3 31 30 64 
3 86 40 28 
3 50 136 133 
3 26 137 138 
3 43 1 34 
3 4 29 12 
3 4 11 28 
3 38 11 10 
3 26 25 137 
3 139 140 5 
3 5 141 139 
3 24 141 5 
3 16 15 142 
3 24 5 13 
3 12 14 13 
3 3 10 11 
3 143 8 7 
3 5 140 6 
3 3 2 9 
3 35 2 1 
3 144 145 146 
3 146 147 144 
3 144 147 148 
3 148 149 144 
3 144 149 145 
3 148 150 149 
3 151 152 150 
3 146 153 154 
3 154 155 146 
3 156 157 158 
3 156 158 159 
3 156 159 160 
3 160 161 156 
3 156 161 162 
3 161 163 162 
3 161 164 163 
3 163 165 166 
3 163 167 165 
3 167 155 165 
3 167 147 155 
3 164 168 167 
3 169 164 161 
3 160 169 161 
3 160 170 171 
3 160 171 172 
3 160 172 173 
3 173 169 160 
3 173 174 169 
3 169 174 164 
3 168 147 167 
3 175 176 168 
3 177 175 174 
3 178 177 174 
3 177 179 175 
3 175 179 176 
3 151 179 180 
3 181 182 151 
3 154 183 184 
3 184 185 154 
3 186 187 185 
3 186 185 188 
3 189 186 188 
3 189 188 190 
3 191 189 190 
3 192 191 193 
3 192 194 195 
3 192 195 196 
3 192 196 156 
3 197 196 195 
3 157 196 197 
3 197 195 194 
3 194 198 197 
3 197 198 199 
3 197 199 200 
3 200 201 197 
3 197 201 202 
3 197 202 203 
3 203 204 197 
3 197 204 205 
3 197 205 206 
3 206 207 197 
3 197 207 208 
3 197 208 209 
3 209 210 197 
3 197 210 211 
3 197 211 212 
3 212 213 197 
3 213 214 197 
3 197 214 215 
3 197 215 216 
3 216 217 197 
3 197 217 218 
3 197 218 219 
3 219 220 197 
3 197 220 221 
3 197 221 222 
3 222 223 197 
3 197 223 224 
3 197 224 225 
3 225 226 197 
3 197 226 227 
3 197 227 228 
3 228 229 197 
3 197 229 230 
3 197 230 231 
3 231 232 197 
3 197 232 233 
3 197 233 234 
3 234 235 197 
3 197 235 236 
3 197 236 237 
3 237 238 197 
3 197 238 239 
3 197 239 240 
3 240 241 197 
3 197 241 242 
3 197 242 172 
3 173 242 241 
3 173 241 243 
3 244 178 173 
3 173 178 174 
3 245 246 184 
3 184 246 185 
3 247 190 248 
3 193 247 249 
3 249 200 193 
3 250 204 249 
3 251 207 250 
3 252 209 251 
3 253 215 252 
3 254 217 253 
3 255 221 254 
3 256 225 255 
3 257 227 256 
3 258 232 257 
3 243 236 258 
3 243 259 244 
3 244 259 178 
3 179 177 180 
3 260 180 261 
3 243 262 259 
3 258 263 262 
3 262 264 260 
3 264 265 260 
3 181 265 266 
3 266 265 267 
3 266 268 182 
3 269 270 246 
3 269 246 245 
3 271 270 272 
3 273 271 272 
3 249 273 274 
3 251 275 252 
3 253 276 277 
3 254 277 278 
3 254 278 279 
3 255 279 280 
3 255 280 281 
3 256 281 282 
3 257 282 283 
3 257 283 284 
3 258 284 263 
3 263 285 264 
3 285 267 264 
3 264 267 265 
3 286 267 287 
3 286 288 268 
3 286 268 266 
3 288 289 268 
3 272 290 291 
3 292 272 291 
3 274 292 250 
3 250 292 293 
3 250 293 275 
3 275 293 294 
3 294 295 276 
3 252 294 276 
3 276 295 296 
3 276 296 277 
3 277 296 297 
3 278 297 298 
3 279 298 280 
3 280 299 281 
3 281 299 300 
3 281 300 282 
3 282 300 283 
3 283 300 301 
3 283 301 302 
3 303 267 285 
3 303 287 267 
3 301 303 302 
3 301 287 303 
3 301 304 287 
3 305 306 288 
3 305 288 286 
3 307 306 305 
3 305 304 307 
3 308 309 310 
3 311 309 308 
3 308 312 311 
3 311 312 313 
3 311 314 309 
3 315 316 317 
3 315 317 318 
3 319 315 320 
3 293 319 321 
3 293 321 294 
3 294 321 295 
3 295 322 296 
3 296 322 323 
3 296 323 324 
3 296 324 297 
3 297 324 325 
3 297 325 298 
3 298 325 326 
3 298 326 280 
3 280 326 299 
3 300 304 301 
3 300 307 304 
3 299 312 307 
3 326 313 312 
3 325 327 313 
3 328 329 314 
3 330 329 328 
3 328 331 330 
3 332 333 334 
3 332 335 336 
3 321 336 295 
3 295 336 335 
3 295 335 322 
3 322 335 331 
3 322 331 323 
3 323 331 324 
3 324 331 327 
3 330 331 335 
3 330 335 332 
3 321 320 336 
3 320 318 336 
3 318 317 333 
3 318 333 332 
3 319 320 321 
3 336 318 332 
3 332 334 330 
3 328 327 331 
3 328 313 327 
3 311 313 328 
3 324 327 325 
3 325 313 326 
3 326 312 299 
3 308 307 312 
3 299 307 300 
3 293 291 319 
3 292 291 293 
3 291 315 319 
3 318 320 315 
3 328 314 311 
3 307 310 306 
3 302 303 285 
3 273 272 292 
3 291 290 315 
3 272 270 290 
3 266 267 286 
3 302 285 263 
3 284 302 263 
3 283 302 284 
3 278 298 279 
3 277 297 278 
3 275 294 252 
3 273 292 274 
3 249 247 273 
3 247 248 273 
3 248 271 273 
3 271 246 270 
3 248 246 271 
3 269 337 338 
3 245 337 269 
3 263 264 262 
3 262 260 259 
3 259 260 261 
3 260 265 180 
3 259 261 178 
3 258 262 243 
3 257 284 258 
3 256 282 257 
3 255 281 256 
3 254 279 255 
3 253 277 254 
3 252 276 253 
3 250 275 251 
3 249 274 250 
3 193 198 192 
3 193 190 247 
3 191 190 193 
3 190 188 248 
3 188 246 248 
3 188 185 246 
3 243 244 173 
3 243 241 240 
3 243 240 239 
3 243 239 238 
3 243 238 237 
3 243 237 236 
3 258 236 235 
3 258 235 234 
3 258 234 233 
3 258 233 232 
3 257 232 231 
3 257 231 230 
3 257 230 229 
3 257 229 228 
3 257 228 227 
3 256 227 226 
3 256 226 225 
3 255 225 224 
3 255 224 223 
3 255 223 222 
3 255 222 221 
3 254 221 220 
3 254 220 219 
3 254 219 218 
3 254 218 217 
3 253 217 216 
3 253 216 215 
3 252 215 214 
3 252 214 213 
3 213 212 252 
3 252 212 211 
3 252 211 210 
3 252 210 209 
3 251 209 208 
3 251 208 207 
3 250 207 206 
3 250 206 205 
3 250 205 204 
3 249 204 203 
3 249 203 202 
3 249 202 201 
3 249 201 200 
3 193 200 199 
3 193 199 198 
3 192 198 194 
3 156 191 192 
3 162 189 191 
3 339 186 189 
3 166 187 186 
3 266 182 181 
3 180 265 181 
3 168 176 147 
3 174 175 168 
3 173 172 242 
3 172 171 197 
3 197 171 170 
3 197 170 340 
3 340 159 197 
3 160 340 170 
3 174 168 164 
3 164 167 163 
3 160 159 340 
3 197 159 158 
3 197 158 157 
3 156 196 157 
3 156 162 191 
3 162 339 189 
3 163 339 162 
3 339 166 186 
3 163 166 339 
3 166 155 187 
3 165 155 166 
3 154 187 155 
3 154 153 341 
3 182 152 151 
3 147 176 148 
3 146 155 147 
3 146 145 153 
